<?xml version="1.0" standalone="no"?>
<!DOCTYPE svg PUBLIC "-//W3C//DTD SVG 20010904//EN"
 "http://www.w3.org/TR/2001/REC-SVG-20010904/DTD/svg10.dtd">
<svg version="1.0" xmlns="http://www.w3.org/2000/svg"
 width="512.000000pt" height="512.000000pt" viewBox="0 0 512.000000 512.000000"
 preserveAspectRatio="xMidYMid meet">

<g transform="translate(0.000000,512.000000) scale(0.100000,-0.100000)"
fill="#000000" stroke="none">
<path d="M2576 4509 c-292 -40 -580 -140 -828 -288 -615 -366 -1040 -988
-1133 -1657 -23 -163 -16 -435 14 -587 43 -214 141 -445 223 -528 89 -90 227
-134 348 -111 114 21 139 40 390 287 129 128 249 240 267 249 48 24 139 21
188 -7 81 -46 124 -153 96 -240 -7 -19 -39 -66 -72 -104 -34 -37 -69 -84 -79
-103 -129 -253 8 -563 284 -636 75 -20 151 -17 284 11 223 47 504 158 674 267
26 16 52 27 58 23 6 -4 10 -63 10 -154 0 -180 13 -233 69 -284 47 -43 100 -61
157 -54 61 6 114 37 149 86 29 41 30 45 37 214 4 95 11 261 14 369 l6 197 61
68 c692 778 765 1885 164 2519 -220 232 -485 378 -812 445 -116 23 -452 34
-569 18z m409 -99 c580 -67 1029 -422 1199 -949 61 -187 71 -260 70 -506 0
-200 -2 -231 -27 -347 -78 -368 -248 -709 -497 -998 l-30 -34 0 69 c0 39 9
261 20 495 11 234 20 475 20 536 l0 111 100 212 c117 249 123 277 66 339 l-34
37 -354 3 c-340 2 -354 2 -386 -18 -39 -24 -66 -81 -59 -125 3 -17 48 -123
100 -235 l95 -205 31 -745 c18 -410 32 -759 31 -775 0 -28 -9 -37 -97 -91
-249 -155 -526 -263 -779 -304 -128 -21 -231 13 -316 102 -62 65 -91 140 -92
238 -1 93 28 159 105 240 74 78 99 137 99 230 0 90 -27 157 -87 217 -59 59
-124 86 -208 87 -127 2 -140 -7 -405 -270 -267 -264 -295 -284 -411 -284 -132
0 -211 50 -277 177 -195 376 -214 848 -52 1317 158 458 494 881 915 1152 385
247 860 369 1260 324z m886 -1109 c10 -13 19 -34 19 -47 0 -13 -43 -116 -96
-229 l-97 -205 -191 0 -191 1 -92 198 c-50 109 -95 210 -98 224 -6 21 -1 33
24 57 l30 31 337 -3 336 -3 19 -24z m-181 -616 l0 -75 -180 0 -180 0 0 75 0
75 180 0 180 0 0 -75z m-10 -157 c0 -18 -16 -391 -36 -828 -20 -437 -33 -827
-31 -865 6 -85 -9 -127 -52 -149 -38 -20 -64 -20 -101 -1 -35 18 -65 89 -57
137 4 28 -50 1346 -67 1641 l-6 97 175 0 175 0 0 -32z"/>
<path d="M2788 4288 c-11 -28 7 -35 102 -42 361 -28 639 -151 861 -382 205
-214 320 -494 338 -823 6 -110 7 -116 28 -119 33 -5 37 26 23 174 -12 141 -52
309 -100 423 -189 457 -619 751 -1136 778 -92 5 -112 3 -116 -9z"/>
<path d="M2450 4035 c-97 -27 -175 -93 -219 -185 -22 -46 -26 -69 -26 -140 0
-74 4 -92 30 -143 127 -253 482 -248 602 8 23 50 28 73 28 140 0 67 -5 89 -28
137 -71 146 -238 224 -387 183z m208 -76 c103 -51 151 -130 151 -249 1 -84
-29 -151 -94 -208 -179 -158 -457 -30 -458 210 0 210 213 341 401 247z"/>
<path d="M1580 3625 c-99 -28 -173 -91 -219 -185 -22 -46 -26 -69 -26 -140 0
-73 4 -93 28 -142 35 -72 110 -140 185 -168 46 -18 72 -21 133 -18 129 7 224
70 281 186 29 59 33 76 33 147 0 67 -5 89 -28 137 -71 146 -238 224 -387 183z
m162 -55 c70 -20 130 -70 166 -140 32 -61 34 -70 30 -141 -7 -116 -60 -194
-163 -241 -61 -27 -160 -29 -218 -4 -101 44 -168 148 -168 261 0 113 50 193
153 244 66 33 130 40 200 21z"/>
<path d="M1177 2810 c-98 -25 -182 -95 -226 -189 -37 -78 -37 -202 -1 -276 31
-64 101 -134 165 -165 70 -35 208 -36 276 -2 75 37 125 87 161 160 29 59 33
76 33 147 -1 59 -6 92 -22 127 -29 64 -105 142 -167 173 -59 29 -158 40 -219
25z"/>
<path d="M4093 2808 c-5 -7 -17 -62 -27 -123 -10 -60 -33 -161 -52 -223 -19
-62 -32 -117 -29 -123 4 -5 15 -9 25 -9 14 0 24 18 44 78 54 164 94 375 75
398 -14 17 -24 18 -36 2z"/>
<path d="M2520 2651 c-78 -24 -150 -89 -189 -171 -35 -74 -36 -172 -2 -248 31
-68 113 -145 182 -167 69 -23 178 -17 237 14 226 116 226 437 1 550 -53 26
-73 31 -133 30 -39 0 -82 -4 -96 -8z m176 -110 c86 -39 136 -140 114 -232 -56
-232 -399 -195 -400 44 0 91 48 163 130 196 40 16 112 12 156 -8z"/>
<path d="M3937 2243 c-50 -83 -117 -227 -109 -235 23 -23 47 1 98 97 58 108
67 145 35 145 -11 0 -22 -3 -24 -7z"/>
</g>
</svg>
